<?xml version="1.0" encoding="utf-8"?>
<!-- Generator: Adobe Illustrator 19.0.0, SVG Export Plug-In . SVG Version: 6.00 Build 0)  -->
<svg version="1.1" id="Layer_1" xmlns="http://www.w3.org/2000/svg" xmlns:xlink="http://www.w3.org/1999/xlink" x="0px" y="0px"
	 width="35px" height="35px" viewBox="-288 379 35 35" style="enable-background:new -288 379 35 35;" xml:space="preserve">
<style type="text/css">
	.st0{fill:#e74e4e;}
	.st1{fill:#FFFFFF;}
</style>
<path id="a" class="st0" d="M-258.1,384.1L-258.1,384.1c6.9,6.9,6.9,17.9,0,24.7l0,0c-6.9,6.9-17.9,6.9-24.7,0l0,0
	c-6.9-6.9-6.9-17.9,0-24.7l0,0C-276,377.3-265,377.3-258.1,384.1z"/>
<g>
	<path class="st1" d="M-275.9,401.7c-0.3-0.3-0.4-0.8-0.1-1.1l8.8-8.8c0.3-0.3,0.7-0.3,1.1,0.1c0.3,0.3,0.4,0.8,0.1,1.1l-8.8,8.8
		C-275.2,402-275.6,402-275.9,401.7"/>
	<path class="st1" d="M-275.9,391.8c0.3-0.3,0.8-0.4,1.1-0.1l8.8,8.8c0.3,0.3,0.3,0.7-0.1,1.1c-0.3,0.3-0.8,0.4-1.1,0.1l-8.8-8.8
		C-276.2,392.6-276.2,392-275.9,391.8"/>
</g>
</svg>
